HIERARCHY
ROOT Hips
{
  OFFSET -102.467 93.6631 130.069
  CHANNELS 6 Xposition Yposition Zposition Zrotation Xrotation Yrotation
  JOINT LeftUpLeg
  {
    OFFSET 8.64259 1.95398 -2.38835
    CHANNELS 3 Zrotation Xrotation Yrotation
    JOINT LeftLeg
    {
      OFFSET 43.7702 0 0
      CHANNELS 3 Zrotation Xrotation Yrotation
      JOINT LeftFoot
      {
        OFFSET 40.6238 0 0
        CHANNELS 3 Zrotation Xrotation Yrotation
        JOINT LeftToeBase
        {
          OFFSET 12.7242 0 0
          CHANNELS 3 Zrotation Xrotation Yrotation
          End Site
          {
            OFFSET 0 0 0
          }
        }
      }
    }
  }
  JOINT RightUpLeg
  {
    OFFSET -8.2249 1.95398 -2.59336
    CHANNELS 3 Zrotation Xrotation Yrotation
    JOINT RightLeg
    {
      OFFSET 43.5653 0 0
      CHANNELS 3 Zrotation Xrotation Yrotation
      JOINT RightFoot
      {
        OFFSET 40.6238 0 0
        CHANNELS 3 Zrotation Xrotation Yrotation
        JOINT RightToeBase
        {
          OFFSET 12.7242 0 0
          CHANNELS 3 Zrotation Xrotation Yrotation
          End Site
          {
            OFFSET 0 0 0
          }
        }
      }
    }
  }
  JOINT Spine
  {
    OFFSET 0.165834 0.87714 6.61349
    CHANNELS 3 Zrotation Xrotation Yrotation
    JOINT Spine1
    {
      OFFSET 7.38963 1.71661e-005 0
      CHANNELS 3 Zrotation Xrotation Yrotation
      JOINT Spine2
      {
        OFFSET 11.9445 1.14441e-005 0
        CHANNELS 3 Zrotation Xrotation Yrotation
        JOINT Spine3
        {
          OFFSET 14.7254 4.19617e-005 0
          CHANNELS 3 Zrotation Xrotation Yrotation
          JOINT Spine4
          {
            OFFSET 10.9679 0 0
            CHANNELS 3 Zrotation Xrotation Yrotation
            JOINT RightShoulder
            {
              OFFSET 2.46616 -1.6653 3.69651
              CHANNELS 3 Zrotation Xrotation Yrotation
              JOINT RightArm
              {
                OFFSET 13.0012 0 0
                CHANNELS 3 Zrotation Xrotation Yrotation
                JOINT RightForeArm
                {
                  OFFSET 28.7848 1.52588e-005 0
                  CHANNELS 3 Zrotation Xrotation Yrotation
                  JOINT RightHand
                  {
                    OFFSET 26.5688 1.52588e-005 0
                    CHANNELS 3 Zrotation Xrotation Yrotation
                    End Site
                    {
                      OFFSET 0 0 0
                    }
                  }
                }
              }
            }
            JOINT LeftShoulder
            {
              OFFSET 2.38034 -1.29275 -3.7523
              CHANNELS 3 Zrotation Xrotation Yrotation
              JOINT LeftArm
              {
                OFFSET 16.3182 6.10351e-005 0
                CHANNELS 3 Zrotation Xrotation Yrotation
                JOINT LeftForeArm
                {
                  OFFSET 27.0901 0 0
                  CHANNELS 3 Zrotation Xrotation Yrotation
                  JOINT LeftHand
                  {
                    OFFSET 24.5451 1.52588e-005 0
                    CHANNELS 3 Zrotation Xrotation Yrotation
                    End Site
                    {
                      OFFSET 0 0 0
                    }
                  }
                }
              }
            }
            JOINT Neck
            {
              OFFSET 5.0226 -0.0266342 0
              CHANNELS 3 Zrotation Xrotation Yrotation
              JOINT Head
              {
                OFFSET 6.69363 2.86102e-005 0
                CHANNELS 3 Zrotation Xrotation Yrotation
                End Site
                {
                  OFFSET 0 0 0
                }
              }
            }
          }
        }
      }
    }
  }
}
MOTION
Frames:	7
Frame Time:	0.0416667
78.9024 110.55 73.4827 -104.115 52.3096 -75.7975 178.805 41.5687 97.6501 -9.50005 15.1989 2.22902 36.9527 -11.7919 -3.93441 39.635 -0.176891 6.73409 169.107 -13.0146 83.1788 -51.4956 -12.9602 -1.14815 49.3266 11.3571 21.4796 45.5377 -2.33134 5.45139 1.64921 8.69518 -90.1597 9.49377 3.21646 -0.559972 -2.17339 3.1887 -0.701145 -24.7403 3.23589 0.43363 -4.72766 3.23588 0.433625 101.057 -24.1491 -84.6628 -1.56136 11.3227 -40.2263 -5.29073 0.802472 -49.1808 -5.83951 0.113743 -8.188 -83.4963 -34.6034 86.4063 12.8503 -3.67519 11.8048 0.0397084 -7.31487 -0.85475 3.51749 -0.302892 -8.49618 -14.919 1.53315 -10.5058 -13.594 0.5708 12.9685 
63.1833 111.61 59.0438 -111.528 58.2267 -68.5583 -177.76 31.7726 99.5514 -8.02731 13.7469 2.6768 36.1011 -12.8918 -4.70222 31.0385 0.0784768 4.11981 171.161 -8.49095 73.8463 -84.8538 -8.53354 -5.4628 47.0536 9.17751 10.9012 40.5124 -2.47657 1.27643 1.93812 8.46839 -90.1041 9.95049 3.81553 -0.513359 -1.71501 3.78926 -0.681024 -24.2947 3.79315 0.658816 -4.28205 3.79316 0.658812 101.369 -20.288 -84.076 -7.37094 13.3202 -35.1802 -6.87178 -2.86059 -37.2571 -5.75615 0.112088 -8.16502 -81.3124 -28.4812 89.8249 14.0638 -4.34271 20.7733 -0.265849 -15.0935 -6.98343 8.11049 -0.498445 -8.84396 -20.4728 3.47586 -7.8994 -11.1974 2.45367 12.4593 
47.7631 108.477 44.9399 -112.837 61.3788 -62.7446 -176.955 24.9965 102.536 -9.05057 17.7121 5.12572 33.0248 -14.0905 -7.68526 26.8529 0.435993 4.38153 -179.441 -2.42338 73.6327 -109.119 -15.6507 -4.77672 42.3835 8.95803 3.11616 37.0087 -1.9848 -0.0765535 1.85233 7.99361 -90.555 10.9138 3.43127 -1.42851 -0.753585 3.36508 -1.57827 -23.3246 3.7018 -0.329952 -3.31196 3.70178 -0.329955 101.414 -17.741 -84.0702 -11.2777 13.9127 -25.7369 -9.35923 -6.43903 -34.8748 -4.7909 0.0732248 -7.74131 -80.4268 -23.8395 91.1865 13.0085 -3.9368 29.2334 -1.25691 -18.5061 -10.7995 15.6525 -0.596104 -7.58983 -21.7291 4.69841 -6.43137 -10.4233 3.73795 13.1917 
33.0591 101.315 31.3864 -115.491 61.8682 -58.0301 -175.418 16.5651 103.079 -13.0092 18.1305 3.55697 26.2883 -15.4776 -12.2224 30.4204 0.0991139 3.66612 -172.759 5.35447 71.3135 -126.11 -28.0112 -2.38026 40.6577 11.3182 2.14053 45.5899 -4.50916 -1.17228 1.71817 7.95404 -90.6476 10.989 3.12068 -1.59063 -0.679349 3.04766 -1.72651 -23.2433 3.45432 -0.578263 -3.23068 3.45432 -0.578259 101.395 -19.0748 -84.0627 -9.90525 19.1263 -6.28916 -9.00133 -3.88389 -47.0717 -7.33623 -0.00405431 -5.64905 -80.7374 -23.1067 90.5345 9.6027 -3.53222 35.0964 -3.49517 -18.5694 -19.1207 23.8647 -0.377088 -5.62803 -22.3819 5.58436 -8.6537 -9.31847 4.50561 16.0547 
20.7053 92.9241 19.4261 -116.063 56.9965 -58.7764 -175.666 19.7617 97.1256 -50.8846 26.9955 4.23171 56.5484 3.522 18.4779 51.0625 -1.73157 3.40617 -177.458 24.3504 71.8958 -134.54 -29.7861 -1.84924 38.3509 13.2623 5.14834 46.1487 -5.11062 -2.59018 0.93618 9.17927 -90.2819 8.5206 1.74358 -0.66711 -3.14938 1.71252 -0.743218 -25.6938 1.86343 -0.112083 -5.68117 1.86343 -0.112084 102.913 -30.1107 -80.6081 -8.69053 25.4608 17.7782 -6.41365 -4.01778 -68.3774 -9.01911 -0.0113494 -5.31013 -77.4141 -37.691 97.6104 8.21912 -10.0426 24.9394 -6.86375 -19.0571 -32.7671 23.8168 -0.964104 -8.12424 -6.8238 5.95913 -6.95764 -10.9915 5.5947 15.2422 
10.7732 88.7767 8.04809 -110.185 49.7468 -72.2022 -179.084 13.5012 86.2705 -59.9551 29.872 4.07598 60.9639 13.9142 31.5299 63.2847 -1.00472 8.33922 168.741 43.4822 82.748 -121.456 -25.9275 -2.92333 46.2781 9.17083 4.94361 51.7146 -5.04963 1.6612 -0.430268 10.0108 -89.0053 6.8438 -0.433123 1.96574 -4.8287 -0.346221 1.98289 -27.3544 -1.00374 1.74482 -7.34172 -1.00376 1.74482 105.906 -40.905 -75.5622 15.5678 9.53848 19.4638 -8.78186 -2.2644 -53.7966 -2.74058 0.00452305 -5.89832 -77.1585 -51.5659 97.9122 3.86242 -5.14486 -4.59165 -6.19657 -16.9442 -26.8531 16.7123 -0.802672 -8.62601 4.0957 5.45836 -11.1736 -15.0503 5.61569 17.8593 
-0.100361 89.7918 -3.86989 -100.677 38.1709 -77.7408 175.261 5.60818 86.7068 -60.1045 30.9535 9.21382 63.0203 15.7531 29.5196 66.1504 0.25415 11.7164 163.625 44.4278 94.0703 -80.0567 -16.021 1.41854 57.4401 4.97641 8.95529 48.9842 -2.96371 5.85989 -1.42938 9.97088 -89.5418 6.95795 -2.65818 1.01684 -4.71108 -2.61085 1.13289 -27.2666 -2.841 0.170421 -7.25398 -2.841 0.170413 108.007 -50.9029 -73.1696 28.5713 2.02138 18.3694 -12.6148 -10.2426 -35.71 -1.57461 -0.0205656 -4.52542 -85.6934 -56.1368 85.7482 -2.31521 3.98016 -23.7777 1.10597 -0.865079 -31.0159 9.71871 -0.695067 -10.1278 8.45888 4.25673 -13.8299 -19.3081 4.64405 18.419 
